<svg xmlns="http://www.w3.org/2000/svg" width="100%" height="100%" viewBox="0 0 288 734" fill="none">
<g filter="url(#filter0_d_1684_6174)">
<path d="M266 2H18C9.16344 2 2 9.16343 2 18V723.677C2 725.524 4.28907 726.384 5.50515 724.994L9.20156 720.77C10.0133 719.842 11.4628 719.862 12.2482 720.812L17.5583 727.236C18.33 728.169 19.7476 728.208 20.5692 727.318L26.7406 720.635C27.5469 719.761 28.9325 719.78 29.7152 720.674L35.4948 727.28C36.2917 728.19 37.7083 728.19 38.5052 727.28L44.1447 720.835C44.9754 719.885 46.4668 719.933 47.2356 720.933L52.0346 727.176C52.7751 728.14 54.1966 728.225 55.0477 727.358L61.7385 720.54C62.554 719.709 63.9043 719.748 64.6711 720.624L70.4949 727.28C71.2917 728.19 72.7083 728.19 73.5051 727.28L79.2531 720.711C80.047 719.803 81.4573 719.8 82.2562 720.703L88.0821 727.288C88.8839 728.194 90.3006 728.187 91.0924 727.271L96.746 720.738C97.5407 719.82 98.9638 719.816 99.7635 720.73L105.495 727.28C106.292 728.19 107.708 728.19 108.505 727.28L114.253 720.711C115.047 719.803 116.457 719.8 117.256 720.703L123.082 727.288C123.884 728.194 125.301 728.187 126.092 727.271L131.746 720.738C132.541 719.82 133.964 719.816 134.764 720.73L140.495 727.28C141.292 728.19 142.708 728.19 143.505 727.28L149.253 720.711C150.047 719.803 151.457 719.8 152.256 720.703L158.082 727.288C158.884 728.194 160.301 728.187 161.092 727.271L166.746 720.738C167.541 719.82 168.964 719.816 169.764 720.73L175.495 727.28C176.292 728.19 177.708 728.19 178.505 727.28L184.253 720.711C185.047 719.803 186.457 719.8 187.256 720.703L193.082 727.288C193.884 728.194 195.301 728.187 196.092 727.271L201.746 720.738C202.541 719.82 203.964 719.816 204.764 720.73L210.495 727.28C211.292 728.19 212.708 728.19 213.505 727.28L219.253 720.711C220.047 719.803 221.457 719.8 222.256 720.703L228.082 727.288C228.884 728.194 230.301 728.187 231.092 727.271L236.746 720.738C237.541 719.82 238.964 719.816 239.764 720.73L245.495 727.28C246.292 728.19 247.708 728.19 248.505 727.28L254.253 720.711C255.047 719.803 256.457 719.8 257.256 720.703L263.082 727.288C263.884 728.194 265.301 728.187 266.092 727.271L271.746 720.738C272.541 719.82 273.964 719.816 274.764 720.73L278.495 724.994C279.711 726.384 282 725.524 282 723.677V18C282 9.16344 274.837 2 266 2Z" fill="white"/>
<path d="M18 2.25H266C274.698 2.25 281.75 9.30152 281.75 18V723.677C281.75 725.293 279.747 726.046 278.683 724.83L274.952 720.565C274.052 719.537 272.451 719.541 271.557 720.574L265.903 727.108C265.211 727.909 263.971 727.915 263.269 727.122L257.443 720.537C256.545 719.521 254.958 719.525 254.065 720.546L248.317 727.115C247.62 727.912 246.38 727.912 245.683 727.115L239.952 720.565C239.052 719.537 237.451 719.541 236.557 720.574L230.903 727.108C230.211 727.909 228.971 727.915 228.269 727.122L222.443 720.537C221.545 719.521 219.958 719.525 219.065 720.546L213.317 727.115C212.62 727.912 211.38 727.912 210.683 727.115L204.952 720.565C204.052 719.537 202.451 719.541 201.557 720.574L195.903 727.108C195.211 727.909 193.971 727.915 193.269 727.122L187.443 720.537C186.545 719.521 184.958 719.525 184.065 720.546L178.317 727.115C177.62 727.912 176.38 727.912 175.683 727.115L169.952 720.565C169.052 719.537 167.451 719.541 166.557 720.574L160.903 727.108C160.211 727.909 158.971 727.915 158.269 727.122L152.443 720.537C151.545 719.521 149.958 719.525 149.065 720.546L143.317 727.115C142.62 727.912 141.38 727.912 140.683 727.115L134.952 720.565C134.052 719.537 132.451 719.541 131.557 720.574L125.903 727.108C125.211 727.909 123.971 727.915 123.269 727.122L117.443 720.537C116.545 719.521 114.958 719.525 114.065 720.546L108.317 727.115C107.62 727.912 106.38 727.912 105.683 727.115L99.9517 720.565C99.052 719.537 97.451 719.541 96.557 720.574L90.9034 727.108C90.2105 727.909 88.9709 727.915 88.2693 727.122L82.4434 720.537C81.5447 719.521 79.9581 719.525 79.065 720.546L73.317 727.115C72.6198 727.912 71.3802 727.912 70.683 727.115L64.8592 720.459C63.9966 719.474 62.4775 719.43 61.56 720.365L54.8693 727.183C54.1245 727.942 52.8807 727.867 52.2328 727.024L47.4338 720.78C46.5689 719.655 44.8911 719.602 43.9566 720.67L38.317 727.115C37.6198 727.912 36.3802 727.912 35.683 727.115L29.9033 720.51C29.0228 719.504 27.4641 719.483 26.5569 720.465L20.3855 727.149C19.6666 727.927 18.4262 727.893 17.751 727.077L12.4409 720.653C11.5573 719.584 9.9266 719.561 9.01342 720.605L5.31701 724.83C4.25294 726.046 2.25 725.293 2.25 723.677V18C2.25 9.30151 9.30152 2.25 18 2.25Z" stroke="#131C16" stroke-opacity="0.2" stroke-width="0.5"/>
</g>
<defs>
<filter id="filter0_d_1684_6174" x="0" y="0" width="288" height="733.963" filterUnits="userSpaceOnUse" color-interpolation-filters="sRGB">
<feFlood flood-opacity="0" result="BackgroundImageFix"/>
<feColorMatrix in="SourceAlpha" type="matrix" values="0 0 0 0 0 0 0 0 0 0 0 0 0 0 0 0 0 0 127 0" result="hardAlpha"/>
<feOffset dx="2" dy="2"/>
<feGaussianBlur stdDeviation="2"/>
<feComposite in2="hardAlpha" operator="out"/>
<feColorMatrix type="matrix" values="0 0 0 0 0 0 0 0 0 0 0 0 0 0 0 0 0 0 0.25 0"/>
<feBlend mode="normal" in2="BackgroundImageFix" result="effect1_dropShadow_1684_6174"/>
<feBlend mode="normal" in="SourceGraphic" in2="effect1_dropShadow_1684_6174" result="shape"/>
</filter>
</defs>
</svg>