<svg xmlns="http://www.w3.org/2000/svg" width="123" height="14" viewBox="0 0 123 14" fill="none">
  <g opacity="0.5">
    <path d="M37.007 5.55045C37.4096 4.94065 37.8918 4.44395 38.5118 4.08479C40.5417 2.90493 42.6161 3.85096 43.0294 6.1465C43.1105 6.5943 43.1457 7.04515 43.1473 7.49906C43.1534 9.25815 43.1457 11.0157 43.1549 12.7748C43.1549 13.0178 43.1121 13.1187 42.8411 13.1019C42.4446 13.0759 42.045 13.0805 41.6486 13.1019C41.4097 13.1141 41.3454 13.0423 41.347 12.8023C41.3577 11.1456 41.3546 9.48893 41.3516 7.83223C41.3516 7.31108 41.321 6.79756 41.1372 6.29627C40.9336 5.74302 40.5509 5.4236 39.9799 5.34107C38.3633 5.10571 37.2489 6.18471 37.2489 7.56936C37.2489 9.29331 37.2397 11.0188 37.258 12.7427C37.2611 13.056 37.1677 13.1217 36.8815 13.1019C36.5079 13.0774 36.1313 13.0805 35.7563 13.1019C35.5144 13.1156 35.4562 13.0407 35.4577 12.8023C35.4685 11.1456 35.4654 9.48893 35.4623 7.83223C35.4623 7.48225 35.447 7.13226 35.372 6.78686C35.1041 5.54892 34.3387 5.11335 33.1109 5.37775C32.0302 5.61006 31.3964 6.47661 31.3933 7.60451C31.3887 9.32846 31.3841 11.0539 31.3994 12.7779C31.4025 13.0728 31.3137 13.1401 31.0381 13.1233C30.6646 13.0988 30.2865 13.0988 29.913 13.1233C29.6497 13.1416 29.5976 13.053 29.5991 12.8039C29.6098 10.5343 29.6053 8.26628 29.6053 5.99672C29.6053 5.35024 29.6175 4.70224 29.5991 4.05729C29.5915 3.81123 29.6711 3.75162 29.9053 3.76232C30.314 3.78219 30.7243 3.78066 31.1331 3.76232C31.3504 3.75315 31.404 3.82651 31.3964 4.0313C31.3811 4.40574 31.3918 4.78018 31.3918 5.17449C31.5295 5.15462 31.5602 5.03541 31.626 4.95899C32.6425 3.77455 33.9713 3.30077 35.4547 3.83109C36.2614 4.11842 36.7085 4.75878 37.007 5.55045Z" fill="#08154D"/>
    <path d="M0 4.29139C0 3.10542 0.00153086 1.99738 0 0.889353C0 0.647878 0.176053 0.728879 0.290868 0.728879C1.93961 0.724294 3.58835 0.716652 5.23555 0.730407C5.82647 0.734992 6.4036 0.834333 6.95624 1.07886C7.92375 1.50832 8.40137 2.27401 8.52078 3.2827C8.67387 4.57719 8.29881 5.64395 7.07259 6.33475C7.47827 6.5533 7.87016 6.73211 8.18552 7.0225C9.03056 7.79888 9.29081 8.78923 9.18518 9.89115C9.01372 11.6686 8.00642 12.717 6.24133 13.0089C5.8923 13.067 5.54479 13.0991 5.19422 13.0991C3.51333 13.1037 1.83091 13.1006 0.154619 13.1006C0.119409 13.0487 0.139311 13.0135 0.174521 12.9784C0.701138 12.4465 1.23235 11.9177 1.75131 11.3767C1.86153 11.2621 1.97634 11.2529 2.11412 11.2529C3.13674 11.2544 4.16088 11.2529 5.1835 11.2559C5.59683 11.2575 5.99792 11.1856 6.36686 11.0068C7.06799 10.6675 7.38948 10.0119 7.29304 9.17437C7.21802 8.53553 6.70977 8.02202 5.97649 7.84015C5.60143 7.74692 5.22178 7.69954 4.83294 7.70107C3.9236 7.70718 3.01427 7.70718 2.10494 7.69954C1.9197 7.69801 1.79111 7.75456 1.65793 7.88294C1.13131 8.39798 0.592441 8.9008 0.00612009 9.45711C0.00612009 8.85342 0.00153348 8.29711 0.0122495 7.74081C0.0122495 7.67814 0.0964429 7.61243 0.151554 7.55741C0.664393 7.04236 1.18489 6.53343 1.6916 6.01381C1.8156 5.88695 1.94419 5.8518 2.11259 5.85333C3.03264 5.85945 3.95422 5.85945 4.8758 5.85486C5.65654 5.8518 6.38063 5.40859 6.59649 4.80949C6.98379 3.73661 6.42197 2.76001 5.27076 2.61788C4.17619 2.48339 3.06785 2.58426 1.96716 2.56745C1.80182 2.56439 1.70844 2.69888 1.60434 2.79517C1.08844 3.272 0.577138 3.75495 0.00306472 4.29139H0Z" fill="#08154D"/>
    <path d="M49.1787 6.90938C49.2139 4.59092 50.1278 2.73401 52.0965 1.43953C54.2948 -0.00626296 57.5403 0.478214 59.2043 2.49254C59.3635 2.68511 59.3758 2.82113 59.1783 3.00605C58.889 3.27504 58.6257 3.57612 58.3639 3.87414C58.223 4.03461 58.1266 4.05907 57.9536 3.89706C57.3367 3.31936 56.6692 2.81501 55.8181 2.63314C54.3546 2.31984 53.1574 2.77222 52.1517 3.86497C50.7417 5.39482 50.8152 8.21609 51.8531 9.66494C52.5879 10.6904 53.5952 11.2208 54.8398 11.3155C56.0722 11.4087 57.1438 11.0236 58.0424 10.1815C58.2139 10.021 58.2751 10.0485 58.3807 10.235C58.5905 10.611 58.814 10.9793 59.0512 11.3384C59.1722 11.5218 59.1339 11.6334 58.9854 11.771C58.1955 12.503 57.2448 12.9065 56.2069 13.1159C54.5964 13.4414 53.0763 13.2427 51.7 12.2891C50.4631 11.4332 49.7681 10.2167 49.3976 8.79533C49.2369 8.18094 49.1588 7.5528 49.1802 6.91091L49.1787 6.90938Z" fill="#849AFD"/>
    <path d="M90.8953 7.80662C91.0331 7.77453 91.0989 7.65991 91.1816 7.57585C92.3374 6.40363 93.4932 5.23294 94.6398 4.05155C94.8143 3.87273 94.9904 3.80243 95.2384 3.80854C95.8966 3.82383 96.5549 3.81313 97.2882 3.81313C97.0172 4.07141 96.7891 4.28079 96.5687 4.49781C95.4787 5.55847 94.3949 6.62523 93.2957 7.67672C93.1089 7.85553 93.1242 7.96863 93.2743 8.14591C94.0366 9.04456 94.7898 9.94933 95.5461 10.8526C96.1538 11.5785 96.7631 12.3045 97.4137 13.0809C96.6544 13.0809 95.9563 13.0824 95.2567 13.0809C95.0546 13.0809 94.9812 12.9051 94.8755 12.7782C93.9187 11.6305 92.9604 10.4842 92.0082 9.33036C91.8659 9.15766 91.7924 9.1439 91.5934 9.29826C90.9979 9.76134 90.7514 10.3177 90.8448 11.0803C90.9137 11.6503 90.8509 12.2357 90.8616 12.8149C90.8662 13.0228 90.8004 13.0946 90.5907 13.087C90.1819 13.0732 89.7716 13.0686 89.3629 13.087C89.1103 13.0992 89.0307 13.0258 89.0338 12.766C89.0475 11.5067 89.0399 10.2473 89.0399 8.98801C89.0399 6.11783 89.0445 3.24765 89.0322 0.375939C89.0322 0.0702748 89.1149 -0.0183681 89.4134 0.00302837C89.7747 0.0290098 90.1421 0.0274815 90.5034 0.00302837C90.7897 -0.0153115 90.8647 0.0779169 90.8632 0.362184C90.8524 2.72191 90.857 5.08163 90.8586 7.44136C90.8586 7.55904 90.8218 7.68589 90.8938 7.80357L90.8953 7.80662Z" fill="#859AFD"/>
    <path d="M62.4905 5.21608C62.8931 4.7041 63.3049 4.3373 63.8009 4.04998C65.2904 3.18495 68.0353 3.43865 68.4195 6.15141C68.467 6.48917 68.5037 6.8254 68.5037 7.16622C68.5037 9.02618 68.4991 10.8861 68.5083 12.7461C68.5083 13.009 68.4455 13.1083 68.17 13.09C67.7965 13.0671 67.4199 13.0671 67.0463 13.09C66.78 13.1053 66.7264 13.0059 66.7279 12.7599C66.7356 10.9228 66.7264 9.08579 66.7279 7.24875C66.7279 6.92627 66.6575 6.61755 66.5626 6.31647C66.3452 5.62873 65.6012 5.2008 64.8801 5.28027C64.3076 5.34294 63.7626 5.43616 63.3018 5.81824C62.7722 6.2584 62.4905 6.80859 62.4905 7.49786C62.4905 9.24473 62.4828 10.9916 62.4966 12.7369C62.4981 13.0258 62.4139 13.1083 62.1338 13.09C61.771 13.0671 61.4051 13.064 61.0438 13.09C60.7606 13.1098 60.707 12.9983 60.7101 12.7431C60.7223 11.5861 60.7147 10.4292 60.7147 9.27224C60.7147 6.31189 60.7208 3.35153 60.707 0.392709C60.707 0.0717625 60.8004 -0.0153515 61.1051 0.00604501C61.4434 0.0304981 61.7893 0.0350831 62.1261 0.00604501C62.4445 -0.0229931 62.4966 0.102329 62.4935 0.388125C62.4798 1.86295 62.4874 3.33625 62.4874 4.81108V5.21608H62.4905Z" fill="#849AFD"/>
    <path d="M114.076 11.6795C113.635 12.248 113.179 12.6485 112.606 12.9236C111.412 13.4997 109.988 13.3576 109.016 12.4727C108.37 11.8843 108.061 11.0957 108.001 10.2352C107.856 8.18577 107.971 6.13171 107.934 4.0807C107.929 3.86827 108.009 3.80561 108.213 3.81019C108.621 3.82242 109.032 3.83006 109.44 3.80713C109.705 3.79338 109.763 3.89119 109.762 4.13878C109.753 5.85203 109.75 7.56527 109.76 9.27852C109.765 10.0778 109.965 10.8145 110.656 11.3081C111.354 11.8079 112.121 11.7712 112.857 11.435C113.621 11.0865 114.047 10.4355 114.06 9.60099C114.093 7.79757 114.082 5.99416 114.071 4.18921C114.07 3.89578 114.137 3.78268 114.446 3.80561C114.808 3.83312 115.175 3.82853 115.536 3.80561C115.816 3.78727 115.902 3.87285 115.902 4.1617C115.891 6.54435 115.896 8.927 115.896 11.3097C115.896 11.8094 115.888 12.3076 115.899 12.8074C115.904 13.0076 115.85 13.0917 115.633 13.0856C115.201 13.0718 114.768 13.0703 114.338 13.0856C114.117 13.0932 114.068 13.0015 114.074 12.8043C114.087 12.4589 114.077 12.1135 114.077 11.6764L114.076 11.6795Z" fill="#859AFD"/>
    <path d="M84.4636 3.62061C85.5138 3.66798 86.7339 4.0898 87.6187 5.24826C87.735 5.4011 87.7595 5.51266 87.634 5.66397C87.4044 5.94365 87.1793 6.22792 86.9635 6.51983C86.8364 6.68947 86.7614 6.70322 86.6129 6.51983C86.097 5.88557 85.4464 5.45 84.6243 5.31704C83.542 5.14281 82.6954 5.55546 82.0433 6.39756C80.9273 7.83724 81.2687 10.0961 82.7536 11.1384C83.7211 11.8185 85.0637 11.739 86.0358 10.9443C86.2547 10.764 86.4813 10.5913 86.642 10.3529C86.7476 10.197 86.8334 10.2367 86.9283 10.3574C87.187 10.686 87.4518 11.01 87.706 11.3417C87.8315 11.5037 87.6539 11.5893 87.582 11.6764C86.9574 12.4252 86.1414 12.8944 85.2122 13.1191C84.1513 13.3743 83.0981 13.304 82.1152 12.7691C80.8722 12.0921 80.1374 11.0223 79.8343 9.67122C79.5801 8.53568 79.6674 7.41236 80.1251 6.31809C80.8324 4.62624 82.2944 3.62061 84.4636 3.62061Z" fill="#849AFD"/>
    <path d="M118.92 9.33962C118.92 8.2163 118.906 7.09299 118.928 5.9712C118.934 5.64567 118.825 5.5662 118.523 5.58454C118.127 5.60746 117.727 5.57995 117.331 5.59371C117.118 5.60135 117.055 5.52646 117.061 5.32014C117.075 4.90138 117.074 4.48109 117.061 4.0608C117.055 3.86518 117.13 3.80558 117.319 3.81016C117.761 3.82086 118.205 3.80558 118.649 3.81627C118.859 3.82239 118.926 3.7475 118.923 3.54118C118.912 2.94055 118.931 2.33839 118.914 1.73776C118.908 1.49476 118.99 1.42445 119.225 1.43515C119.61 1.45196 119.998 1.45196 120.383 1.43515C120.618 1.42445 120.702 1.4917 120.696 1.73623C120.679 2.32616 120.7 2.91609 120.687 3.50603C120.68 3.7475 120.771 3.82239 121.005 3.81627C121.516 3.80405 122.028 3.8178 122.539 3.80863C122.726 3.80558 122.804 3.85754 122.799 4.05622C122.787 4.48721 122.787 4.91819 122.799 5.34918C122.805 5.55703 122.712 5.59218 122.533 5.58912C122.044 5.58148 121.555 5.60441 121.066 5.57995C120.772 5.5662 120.68 5.64262 120.682 5.95134C120.696 8.18574 120.682 10.4201 120.697 12.6545C120.7 12.9908 120.628 13.1222 120.272 13.0871C119.923 13.0519 119.567 13.0657 119.215 13.084C118.969 13.0978 118.911 13.003 118.914 12.7722C118.924 11.626 118.918 10.4813 118.918 9.33503L118.92 9.33962Z" fill="#859AFD"/>
    <path d="M28.5814 4.17027C28.5829 3.8585 28.4941 3.78667 28.2033 3.80653C27.819 3.83251 27.4302 3.82182 27.0444 3.80959C26.8577 3.80348 26.7826 3.85238 26.7949 4.05107C26.8117 4.3445 26.7995 4.63947 26.7995 4.9543C26.6678 4.94513 26.6418 4.85802 26.5928 4.80453C26.1795 4.35673 25.7003 4.00674 25.1201 3.80806C23.0121 3.08517 20.5337 4.40564 19.8769 6.6217C19.4008 8.22796 19.4911 9.79296 20.3423 11.2693C21.5456 13.357 24.2889 13.9485 26.1305 12.3315C26.3463 12.142 26.5469 11.9372 26.801 11.6988C26.801 12.1053 26.8194 12.4538 26.7949 12.7992C26.7781 13.0498 26.8699 13.1079 27.0995 13.0895C27.3368 13.0697 27.5772 13.085 27.8144 13.085C28.3206 13.085 28.5738 12.8353 28.5738 12.3361C28.5738 9.61415 28.5676 6.89221 28.5814 4.1718V4.17027ZM26.0601 10.6993C24.9257 12.0121 22.9065 11.844 21.9528 10.3905C21.172 9.19997 21.2271 7.40114 22.0921 6.27324C22.6003 5.61148 23.2907 5.2997 24.3914 5.289C25.3406 5.29359 26.305 6.02107 26.6801 7.28804C27.0444 8.51681 26.925 9.6982 26.0601 10.6993Z" fill="#08154D"/>
    <path d="M78.662 8.57853C78.6421 8.22854 78.6773 7.87397 78.6497 7.52399C78.5579 6.38386 78.117 5.3874 77.2704 4.61865C76.4376 3.86366 75.4349 3.53813 74.2944 3.61302C72.8539 3.70778 71.6996 4.30229 70.8867 5.49744C70.0249 6.76441 69.809 8.16741 70.1136 9.64988C70.3586 10.8435 70.9786 11.8002 72.0073 12.4773C73.0697 13.1788 74.2439 13.3958 75.4839 13.2002C76.4024 13.055 77.2429 12.6897 77.9899 12.1227C78.2287 11.9408 78.3145 11.7819 78.094 11.5175C77.8904 11.2745 77.7205 11.004 77.5506 10.7365C77.4434 10.5669 77.3516 10.5623 77.2092 10.6937C76.4774 11.3692 75.6095 11.6306 74.6175 11.5924C73.2274 11.5404 72.0609 10.5348 71.819 9.16693C71.7731 8.90253 71.8343 8.8628 72.0732 8.86432C73.1187 8.87349 74.1659 8.86891 75.2114 8.86891C76.257 8.86891 77.3041 8.8628 78.3497 8.87349C78.5778 8.87502 78.6788 8.82459 78.6635 8.57547L78.662 8.57853ZM76.6933 7.43382C75.092 7.43076 73.4907 7.43382 71.8879 7.43382C71.9752 6.38692 72.8876 5.46687 73.9622 5.32932C74.8869 5.21164 75.7227 5.36447 76.3672 6.11793C76.6428 6.44041 76.779 6.81638 76.8648 7.21832C76.8938 7.35129 76.854 7.43382 76.6933 7.43382Z" fill="#849AFD"/>
    <path d="M18.6569 7.65201C18.5467 6.18941 17.9374 4.98509 16.6852 4.19342C14.9936 3.12207 12.5901 3.53625 11.2399 5.05539C10.2708 6.14661 9.95395 7.43652 10.0259 8.85479C10.1009 10.3296 10.6857 11.5538 11.9058 12.4066C13.7352 13.6843 16.3775 13.4963 18.1027 12.0245C18.2466 11.9023 18.2696 11.8151 18.1594 11.6623C17.9619 11.3903 17.7583 11.1182 17.5975 10.8233C17.4429 10.539 17.3143 10.5971 17.1138 10.7698C16.5045 11.2925 15.8126 11.592 14.9874 11.5981C13.3372 11.6088 12.1033 10.6643 11.8201 9.15434C11.7757 8.92051 11.8247 8.86702 12.0589 8.86855C13.1045 8.87925 14.1516 8.87313 15.1972 8.87313C16.2427 8.87313 17.2899 8.86091 18.3354 8.88078C18.6202 8.88689 18.6906 8.77838 18.6814 8.53538C18.6707 8.24041 18.6783 7.94545 18.6569 7.65201ZM16.5887 7.43957C15.8416 7.4197 15.0915 7.43193 14.3445 7.43193C13.5959 7.43193 12.8473 7.42276 12.1002 7.43651C11.8614 7.4411 11.8507 7.36621 11.8981 7.16447C12.3819 5.11806 15.0624 4.82003 16.1585 5.87763C16.5137 6.2215 16.7755 6.62039 16.8505 7.12474C16.8826 7.34329 16.8581 7.44568 16.5887 7.43804V7.43957Z" fill="#08154D"/>
    <path d="M106.363 7.44378C105.984 5.18645 104.176 3.62604 101.869 3.61992C101.437 3.59089 100.953 3.66577 100.489 3.82013C98.8054 4.37797 97.7889 5.55019 97.4169 7.26649C97.0679 8.88193 97.3511 10.3781 98.4166 11.6726C99.3749 12.8372 100.635 13.3186 102.14 13.2407C103.713 13.1582 104.901 12.4429 105.731 11.1316C106.449 9.99607 106.581 8.74743 106.362 7.44531L106.363 7.44378ZM103.481 11.046C102.207 12.0089 100.43 11.6528 99.5754 10.3017C98.908 9.24719 98.9646 7.30317 99.779 6.29295C100.935 4.86092 103.236 4.97554 104.174 6.55277C104.514 7.12436 104.667 7.73569 104.661 8.09943C104.656 9.45199 104.361 10.3827 103.482 11.046H103.481Z" fill="#849AFD"/>
  </g>
</svg>